#Comment line ignore any data following # character 
#Hierarchical Translation and Rotation (.htr) file 
[Header]	
#Header keywords are followed by a single value 
FileType HTR		#Single word string
DataType HTRS		#Translation followed by rotation and scale data
FileVersion 1		#integer
NumSegments 84		#integer
NumFrames 2		#integer
DataFrameRate 30		#integer, data frame rate in this file
EulerRotationOrder ZYX
CalibrationUnits mm
RotationUnits Degrees
GlobalAxisofGravity Y
BoneLengthAxis Y
ScaleFactor 1.00
[SegmentNames&Hierarchy]
#CHILD	PARENT
MASTER GLOBAL
root MASTER
chest root
L_mid_tent01 root
R_mid_tent01 root
spine01 root
Bip01_Neck chest
L_humerus chest
R_humerus chest
weapon_bone chest
Bip01_Head Bip01_Neck
eye_left_bone Bip01_Head
eye_right_bone Bip01_Head
L_forearm L_humerus
L_front_hand L_forearm
L_weapon_bone L_forearm
L_front_hand01_01 L_front_hand
L_front_hand02_01 L_front_hand
L_front_hand03_01 L_front_hand
L_front_hand01_02 L_front_hand01_01
L_front_hand02_02 L_front_hand02_01
L_front_hand03_02 L_front_hand03_01
R_forearm R_humerus
R_front_hand R_forearm
R_weapon_bone R_forearm
R_front_hand01_01 R_front_hand
R_front_hand02_01 R_front_hand
R_front_hand03_01 R_front_hand
R_front_hand01_02 R_front_hand01_01
R_front_hand02_02 R_front_hand02_01
R_front_hand03_02 R_front_hand03_01
null_rope01_connect L_mid_tent01
Rope1_Seg01 null_rope01_connect
Rope1_Seg02 Rope1_Seg01
Rope1_Seg03 Rope1_Seg02
Rope1_Seg04 Rope1_Seg03
Rope1_Seg05 Rope1_Seg04
Rope1_Seg06 Rope1_Seg05
Rope1_Seg07 Rope1_Seg06
Rope1_Seg09 Rope1_Seg07
L_mid_hand01 Rope1_Seg09
L_mid_hand02 Rope1_Seg09
L_mid_hand03 Rope1_Seg09
null_rope02_connect R_mid_tent01
Rope2_Seg01 null_rope02_connect
Rope2_Seg02 Rope2_Seg01
Rope2_Seg03 Rope2_Seg02
Rope2_Seg04 Rope2_Seg03
Rope2_Seg05 Rope2_Seg04
Rope2_Seg06 Rope2_Seg05
Rope2_Seg07 Rope2_Seg06
Rope2_Seg09 Rope2_Seg07
R_mid_hand01 Rope2_Seg09
R_mid_hand02 Rope2_Seg09
R_mid_hand03 Rope2_Seg09
spine02 spine01
spine03 spine02
pelvis spine03
null_rope03_connect pelvis
null_rope04_connect pelvis
Rope3_Seg01 null_rope03_connect
Rope3_Seg02 Rope3_Seg01
Rope3_Seg03 Rope3_Seg02
Rope3_Seg04 Rope3_Seg03
Rope3_Seg05 Rope3_Seg04
Rope3_Seg06 Rope3_Seg05
Rope3_Seg07 Rope3_Seg06
Rope3_Seg08 Rope3_Seg07
Rope3_Seg09 Rope3_Seg08
R_rear_hand01 Rope3_Seg09
R_rear_hand02 Rope3_Seg09
R_rear_hand03 Rope3_Seg09
Rope4_Seg01 null_rope04_connect
Rope4_Seg02 Rope4_Seg01
Rope4_Seg03 Rope4_Seg02
Rope4_Seg04 Rope4_Seg03
Rope4_Seg05 Rope4_Seg04
Rope4_Seg06 Rope4_Seg05
Rope4_Seg07 Rope4_Seg06
Rope4_Seg08 Rope4_Seg07
Rope4_Seg09 Rope4_Seg08
L_rear_hand01 Rope4_Seg09
L_rear_hand02 Rope4_Seg09
L_rear_hand03 Rope4_Seg09
[BasePosition]
#SegmentName Tx, Ty, Tz, Rx, Ry, Rz, BoneLength
MASTER 0.000000 0.000000 0.000000 -90.000000 0.000000 0.000000 10.000000 
root 0.000000 0.000000 0.000000 0.000000 0.000000 0.000000 10.000000 
chest 0.000000 0.000000 0.000000 0.000000 0.000000 0.000000 10.000000 
L_mid_tent01 0.000000 0.000000 0.000000 0.000000 0.000000 0.000000 10.000000 
R_mid_tent01 0.000000 0.000000 0.000000 0.000000 0.000000 0.000000 10.000000 
spine01 0.000000 0.000000 0.000000 0.000000 0.000000 0.000000 10.000000 
Bip01_Neck 0.000000 0.000000 0.000000 0.000000 0.000000 0.000000 10.000000 
L_humerus 0.000000 0.000000 0.000000 0.000000 0.000000 0.000000 10.000000 
R_humerus 0.000000 0.000000 0.000000 0.000000 0.000000 0.000000 10.000000 
weapon_bone 0.000000 0.000000 0.000000 0.000000 0.000000 0.000000 10.000000 
Bip01_Head 0.000000 0.000000 0.000000 0.000000 0.000000 0.000000 10.000000 
eye_left_bone 0.000000 0.000000 0.000000 0.000000 0.000000 0.000000 10.000000 
eye_right_bone 0.000000 0.000000 0.000000 0.000000 0.000000 0.000000 10.000000 
L_forearm 0.000000 0.000000 0.000000 0.000000 0.000000 0.000000 10.000000 
L_front_hand 0.000000 0.000000 0.000000 0.000000 0.000000 0.000000 10.000000 
L_weapon_bone 0.000000 0.000000 0.000000 0.000000 0.000000 0.000000 10.000000 
L_front_hand01_01 0.000000 0.000000 0.000000 0.000000 0.000000 0.000000 10.000000 
L_front_hand02_01 0.000000 0.000000 0.000000 0.000000 0.000000 0.000000 10.000000 
L_front_hand03_01 0.000000 0.000000 0.000000 0.000000 0.000000 0.000000 10.000000 
L_front_hand01_02 0.000000 0.000000 0.000000 0.000000 0.000000 0.000000 10.000000 
L_front_hand02_02 0.000000 0.000000 0.000000 0.000000 0.000000 0.000000 10.000000 
L_front_hand03_02 0.000000 0.000000 0.000000 0.000000 0.000000 0.000000 10.000000 
R_forearm 0.000000 0.000000 0.000000 0.000000 0.000000 0.000000 10.000000 
R_front_hand 0.000000 0.000000 0.000000 0.000000 0.000000 0.000000 10.000000 
R_weapon_bone 0.000000 0.000000 0.000000 0.000000 0.000000 0.000000 10.000000 
R_front_hand01_01 0.000000 0.000000 0.000000 0.000000 0.000000 0.000000 10.000000 
R_front_hand02_01 0.000000 0.000000 0.000000 0.000000 0.000000 0.000000 10.000000 
R_front_hand03_01 0.000000 0.000000 0.000000 0.000000 0.000000 0.000000 10.000000 
R_front_hand01_02 0.000000 0.000000 0.000000 0.000000 0.000000 0.000000 10.000000 
R_front_hand02_02 0.000000 0.000000 0.000000 0.000000 0.000000 0.000000 10.000000 
R_front_hand03_02 0.000000 0.000000 0.000000 0.000000 0.000000 0.000000 10.000000 
null_rope01_connect 0.000000 0.000000 0.000000 0.000000 0.000000 0.000000 10.000000 
Rope1_Seg01 0.000000 0.000000 0.000000 0.000000 0.000000 0.000000 10.000000 
Rope1_Seg02 0.000000 0.000000 0.000000 0.000000 0.000000 0.000000 10.000000 
Rope1_Seg03 0.000000 0.000000 0.000000 0.000000 0.000000 0.000000 10.000000 
Rope1_Seg04 0.000000 0.000000 0.000000 0.000000 0.000000 0.000000 10.000000 
Rope1_Seg05 0.000000 0.000000 0.000000 0.000000 0.000000 0.000000 10.000000 
Rope1_Seg06 0.000000 0.000000 0.000000 0.000000 0.000000 0.000000 10.000000 
Rope1_Seg07 0.000000 0.000000 0.000000 0.000000 0.000000 0.000000 10.000000 
Rope1_Seg09 0.000000 0.000000 0.000000 0.000000 0.000000 0.000000 10.000000 
L_mid_hand01 0.000000 0.000000 0.000000 0.000000 0.000000 0.000000 10.000000 
L_mid_hand02 0.000000 0.000000 0.000000 0.000000 0.000000 0.000000 10.000000 
L_mid_hand03 0.000000 0.000000 0.000000 0.000000 0.000000 0.000000 10.000000 
null_rope02_connect 0.000000 0.000000 0.000000 0.000000 0.000000 0.000000 10.000000 
Rope2_Seg01 0.000000 0.000000 0.000000 0.000000 0.000000 0.000000 10.000000 
Rope2_Seg02 0.000000 0.000000 0.000000 0.000000 0.000000 0.000000 10.000000 
Rope2_Seg03 0.000000 0.000000 0.000000 0.000000 0.000000 0.000000 10.000000 
Rope2_Seg04 0.000000 0.000000 0.000000 0.000000 0.000000 0.000000 10.000000 
Rope2_Seg05 0.000000 0.000000 0.000000 0.000000 0.000000 0.000000 10.000000 
Rope2_Seg06 0.000000 0.000000 0.000000 0.000000 0.000000 0.000000 10.000000 
Rope2_Seg07 0.000000 0.000000 0.000000 0.000000 0.000000 0.000000 10.000000 
Rope2_Seg09 0.000000 0.000000 0.000000 0.000000 0.000000 0.000000 10.000000 
R_mid_hand01 0.000000 0.000000 0.000000 0.000000 0.000000 0.000000 10.000000 
R_mid_hand02 0.000000 0.000000 0.000000 0.000000 0.000000 0.000000 10.000000 
R_mid_hand03 0.000000 0.000000 0.000000 0.000000 0.000000 0.000000 10.000000 
spine02 0.000000 0.000000 0.000000 0.000000 0.000000 0.000000 10.000000 
spine03 0.000000 0.000000 0.000000 0.000000 0.000000 0.000000 10.000000 
pelvis 0.000000 0.000000 0.000000 0.000000 0.000000 0.000000 10.000000 
null_rope03_connect 0.000000 0.000000 0.000000 0.000000 0.000000 0.000000 10.000000 
null_rope04_connect 0.000000 0.000000 0.000000 0.000000 0.000000 0.000000 10.000000 
Rope3_Seg01 0.000000 0.000000 0.000000 0.000000 0.000000 0.000000 10.000000 
Rope3_Seg02 0.000000 0.000000 0.000000 0.000000 0.000000 0.000000 10.000000 
Rope3_Seg03 0.000000 0.000000 0.000000 0.000000 0.000000 0.000000 10.000000 
Rope3_Seg04 0.000000 0.000000 0.000000 0.000000 0.000000 0.000000 10.000000 
Rope3_Seg05 0.000000 0.000000 0.000000 0.000000 0.000000 0.000000 10.000000 
Rope3_Seg06 0.000000 0.000000 0.000000 0.000000 0.000000 0.000000 10.000000 
Rope3_Seg07 0.000000 0.000000 0.000000 0.000000 0.000000 0.000000 10.000000 
Rope3_Seg08 0.000000 0.000000 0.000000 0.000000 0.000000 0.000000 10.000000 
Rope3_Seg09 0.000000 0.000000 0.000000 0.000000 0.000000 0.000000 10.000000 
R_rear_hand01 0.000000 0.000000 0.000000 0.000000 0.000000 0.000000 10.000000 
R_rear_hand02 0.000000 0.000000 0.000000 0.000000 0.000000 0.000000 10.000000 
R_rear_hand03 0.000000 0.000000 0.000000 0.000000 0.000000 0.000000 10.000000 
Rope4_Seg01 0.000000 0.000000 0.000000 0.000000 0.000000 0.000000 10.000000 
Rope4_Seg02 0.000000 0.000000 0.000000 0.000000 0.000000 0.000000 10.000000 
Rope4_Seg03 0.000000 0.000000 0.000000 0.000000 0.000000 0.000000 10.000000 
Rope4_Seg04 0.000000 0.000000 0.000000 0.000000 0.000000 0.000000 10.000000 
Rope4_Seg05 0.000000 0.000000 0.000000 0.000000 0.000000 0.000000 10.000000 
Rope4_Seg06 0.000000 0.000000 0.000000 0.000000 0.000000 0.000000 10.000000 
Rope4_Seg07 0.000000 0.000000 0.000000 0.000000 0.000000 0.000000 10.000000 
Rope4_Seg08 0.000000 0.000000 0.000000 0.000000 0.000000 0.000000 10.000000 
Rope4_Seg09 0.000000 0.000000 0.000000 0.000000 0.000000 0.000000 10.000000 
L_rear_hand01 0.000000 0.000000 0.000000 0.000000 0.000000 0.000000 10.000000 
L_rear_hand02 0.000000 0.000000 0.000000 0.000000 0.000000 0.000000 10.000000 
L_rear_hand03 0.000000 0.000000 0.000000 0.000000 0.000000 0.000000 10.000000 
#Beginning of Data. Separated by tabs
#Fr	Tx	Ty	Tz	Rx	Ry	Rz	SF
[MASTER]
20 0.000000 0.000000 0.000000 0.001660 0.001660 0.001660 0.000000
21 0.000000 0.000000 0.000000 0.001660 0.001660 0.001660 0.000000
[root]
20 1.736718 325.807129 1703.109741 -74.659660 -25.118828 -125.441124 1733.994263
21 10.537740 342.000031 1667.684692 -71.175247 -21.333300 -132.752304 1702.423950
[chest]
20 -84.512650 -34.090519 0.000000 -2.824791 -10.210669 176.042862 91.129311
21 -84.512650 -34.090519 0.000000 -2.838868 -9.811694 176.114929 91.129311
[L_mid_tent01]
20 27.299793 22.177551 -249.918747 114.511139 21.885199 159.645035 252.381668
21 27.299753 22.177647 -249.918747 113.544960 15.150271 156.927765 252.381668
[R_mid_tent01]
20 23.228794 24.509907 226.238495 -68.366631 -59.560410 -12.523997 228.744751
21 23.228794 24.509907 226.238495 -91.486504 -50.509071 14.426975 228.744751
[spine01]
20 -0.361383 -0.195265 0.000000 0.001934 0.001330 20.984596 0.410763
21 -0.361383 -0.195265 0.000000 0.001934 0.001330 20.979565 0.410763
[Bip01_Neck]
20 165.484543 71.581718 0.000119 175.896118 1.177290 24.871183 180.302734
21 165.484543 71.581718 0.000119 175.896118 1.177290 24.871183 180.302734
[L_humerus]
20 -13.983130 -135.272980 -120.471481 -76.230637 13.927310 -2.079174 181.680161
21 -13.983130 -135.272980 -120.471481 -73.584145 13.383066 -1.408593 181.680161
[R_humerus]
20 -13.983309 -135.273102 125.287651 134.665329 -33.119789 -4.039395 184.909012
21 -13.983309 -135.273102 125.287651 135.592636 -33.061123 -6.047607 184.909012
[weapon_bone]
20 235.964890 -300.705902 0.000000 0.000000 -89.951546 -128.212341 382.234833
21 235.964890 -300.705902 0.000000 0.000000 -89.951546 -128.212341 382.234833
[Bip01_Head]
20 257.485809 80.189041 0.809362 20.295748 7.591097 -62.533546 269.684784
21 259.288635 77.822556 0.533904 28.424885 9.939264 -65.229408 270.716156
[eye_left_bone]
20 34.960629 158.725586 -75.707474 -124.743462 -86.900169 25.442337 179.297745
21 34.637066 158.629059 -75.672058 -122.865723 -86.783867 23.550447 179.134491
[eye_right_bone]
20 40.092621 160.380096 53.209263 55.293751 -86.903076 25.406826 173.667557
21 40.022163 160.244095 53.234211 57.146080 -86.785820 23.538656 173.533356
[L_forearm]
20 322.776093 0.000000 -0.000119 0.001427 0.001864 -15.106587 322.776093
21 322.776093 0.000000 -0.000119 0.001499 0.001806 -10.626997 322.776093
[L_front_hand]
20 241.149185 -0.042021 -3.300071 67.677200 5.695293 -5.166485 241.171753
21 241.149185 -0.042021 -3.300071 123.393585 9.172586 -1.628662 241.171753
[L_weapon_bone]
20 156.183838 0.000000 0.000000 0.000265 0.002332 -77.018944 156.183838
21 156.183838 0.000000 0.000000 0.000279 0.002331 -76.337952 156.183838
[L_front_hand01_01]
20 86.095154 20.947098 -0.655860 -0.291024 -0.523043 67.031754 88.609184
21 86.095154 20.947098 -0.655860 -0.289914 -0.523659 66.788704 88.609184
[L_front_hand02_01]
20 86.935165 -11.437475 24.513514 143.061005 -55.523731 -47.982006 91.046425
21 86.935165 -11.437475 24.513514 142.784698 -55.380455 -47.647202 91.046425
[L_front_hand03_01]
20 86.637497 -14.123976 -20.424902 -143.335892 53.745697 -49.957321 90.126129
21 86.637497 -14.123976 -20.424902 -143.076859 53.603153 -49.636150 90.126129
[L_front_hand01_02]
20 71.020905 -0.000179 0.000030 0.001534 0.001777 -8.378850 71.020905
21 71.020905 -0.000179 0.000030 0.001534 0.001777 -8.378850 71.020905
[L_front_hand02_02]
20 71.020927 -0.000119 0.000060 0.001534 0.001777 -8.378850 71.020927
21 71.020927 -0.000119 0.000060 0.001534 0.001777 -8.378850 71.020927
[L_front_hand03_02]
20 71.020905 -0.000060 0.000060 0.001534 0.001777 -8.378850 71.020905
21 71.020905 -0.000060 0.000060 0.001534 0.001777 -8.378850 71.020905
[R_forearm]
20 322.776428 -0.000060 0.000030 0.118931 -0.178992 -34.219639 322.776428
21 322.776428 -0.000060 0.000030 0.113210 -0.181073 -33.588856 322.776428
[R_front_hand]
20 238.847015 -0.006795 2.210259 -2.635298 -10.645461 -26.312506 238.857239
21 238.847015 -0.006795 2.210259 -2.635298 -10.645461 -26.312506 238.857239
[R_weapon_bone]
20 155.664093 0.002503 -0.000030 0.003487 0.001180 -90.988930 155.664078
21 155.664093 0.002503 -0.000030 0.003487 0.001180 -90.988930 155.664078
[R_front_hand01_01]
20 87.624611 14.231146 22.918642 -154.633514 -59.950634 61.746063 91.683487
21 87.624611 14.231146 22.918642 -154.633484 -59.950607 61.746033 91.683487
[R_front_hand02_01]
20 89.356956 14.367283 -19.491137 154.602661 58.302849 63.744389 92.579636
21 89.356956 14.367283 -19.491137 154.602676 58.302849 63.744400 92.579636
[R_front_hand03_01]
20 87.286232 -22.307278 -0.143439 0.162155 -0.423168 -75.767921 90.091743
21 87.286232 -22.307278 -0.143439 0.162155 -0.423168 -75.767906 90.091743
[R_front_hand01_02]
20 71.020905 0.000060 0.000119 0.002345 -0.000098 94.805954 71.020905
21 71.020905 0.000060 0.000119 0.002337 -0.000224 100.952568 71.020905
[R_front_hand02_02]
20 71.020844 -0.000030 -0.000119 0.002345 -0.000098 94.805954 71.020836
21 71.020844 -0.000030 -0.000119 0.002337 -0.000224 100.952568 71.020836
[R_front_hand03_02]
20 71.020905 0.000000 0.000030 0.002345 -0.000098 94.805954 71.020905
21 71.020905 0.000000 0.000030 0.002337 -0.000224 100.952568 71.020905
[null_rope01_connect]
20 328.732483 0.000000 -0.000238 -137.237274 35.968513 80.570671 328.732483
21 328.732483 0.000000 -0.000238 -144.132004 35.735771 63.652821 328.732483
[Rope1_Seg01]
20 -0.000038 -0.000114 0.000105 73.757729 47.756027 87.285538 0.000160
21 -0.000038 -0.000114 0.000106 64.970284 52.032536 77.938194 0.000160
[Rope1_Seg02]
20 139.999863 -0.000179 0.000000 -1.491729 -8.845773 5.307892 139.999863
21 139.999863 -0.000179 0.000000 -1.453779 -8.662609 3.882243 139.999863
[Rope1_Seg03]
20 139.999924 0.000060 -0.000060 -2.853255 -10.504232 6.054251 139.999924
21 139.999924 0.000060 -0.000060 -2.926572 -10.647277 4.533599 139.999924
[Rope1_Seg04]
20 139.999924 -0.000060 -0.000119 -9.415059 -17.465878 9.721580 139.999924
21 139.999924 -0.000060 -0.000119 -8.348386 -16.787983 7.057418 139.999924
[Rope1_Seg05]
20 139.999832 0.000119 -0.000060 -9.291863 -9.767522 3.461852 139.999832
21 139.999832 0.000119 -0.000060 -12.761790 -14.185303 3.722300 139.999832
[Rope1_Seg06]
20 139.999954 0.000119 -0.000060 6.779018 8.591773 -2.420095 139.999954
21 139.999954 0.000119 -0.000060 2.348895 3.721490 -1.634550 139.999954
[Rope1_Seg07]
20 139.999985 0.000060 0.000000 5.818189 13.875748 -5.553423 139.999985
21 139.999985 0.000060 0.000000 8.282405 15.879285 -4.064662 139.999985
[Rope1_Seg09]
20 121.602913 0.000119 -0.000089 64.137863 -1.358792 0.849076 121.602913
21 121.602913 0.000119 -0.000089 101.821915 -1.360383 0.846022 121.602913
[L_mid_hand01]
20 103.859421 1.038730 8.195221 110.960983 -46.127617 -15.968385 104.187431
21 103.859421 1.038730 8.195221 113.367744 -51.314983 -19.170864 104.187431
[L_mid_hand02]
20 105.572853 -4.139662 -10.864139 -149.965897 34.562794 -43.864349 106.211075
21 105.572853 -4.139662 -10.864139 -153.542084 37.220566 -49.958858 106.211075
[L_mid_hand03]
20 104.641464 17.579376 -3.913581 -12.948408 13.703238 49.759277 106.179977
21 104.641464 17.579376 -3.913581 -11.549925 14.892871 55.408329 106.179977
[null_rope02_connect]
20 328.732849 0.000179 -0.000119 -150.528137 -11.223803 -60.952534 328.732849
21 328.732849 0.000179 -0.000119 -162.804535 -7.787766 -77.829048 328.732849
[Rope2_Seg01]
20 0.000022 0.000106 0.000000 74.597565 -27.249189 -90.191696 0.000109
21 0.000027 0.000107 0.000000 90.735008 -20.994997 -116.474564 0.000110
[Rope2_Seg02]
20 139.999741 -0.000060 -0.000119 -33.622234 53.016151 25.706877 139.999756
21 139.999741 -0.000060 -0.000119 -2.691999 19.972870 13.010567 139.999756
[Rope2_Seg03]
20 140.000107 0.000030 0.000000 -37.298859 20.316200 51.756863 140.000107
21 140.000107 0.000030 0.000000 -9.926738 51.348118 64.991524 140.000107
[Rope2_Seg04]
20 139.999802 0.000000 -0.000060 -8.596334 -11.153554 28.092222 139.999802
21 139.999802 0.000000 -0.000060 -15.083491 4.512031 40.580200 139.999802
[Rope2_Seg05]
20 139.999985 -0.000060 0.000119 -0.545671 -5.607430 10.436319 139.999985
21 139.999985 -0.000060 0.000119 -3.123132 -3.990208 20.475119 139.999985
[Rope2_Seg06]
20 139.999893 -0.000030 -0.000119 0.246741 -2.627646 4.855432 139.999893
21 139.999893 -0.000030 -0.000119 -0.100614 -1.632317 7.169878 139.999893
[Rope2_Seg07]
20 139.999893 0.000060 -0.000060 0.275354 -1.524046 2.857168 139.999893
21 139.999893 0.000060 -0.000060 0.136028 -0.868847 3.814577 139.999893
[Rope2_Seg09]
20 121.338966 0.000089 -0.000060 33.793236 -1.359788 -0.847141 121.338966
21 121.338966 0.000089 -0.000060 33.793236 -1.359788 -0.847141 121.338966
[R_mid_hand01]
20 104.680779 11.144459 -10.335981 -36.072029 33.220169 39.674145 105.778534
21 104.680779 11.144459 -10.335981 -38.685585 29.973904 34.690300 105.778534
[R_mid_hand02]
20 104.070427 2.443552 8.231699 69.651680 -44.494339 15.107097 104.424065
21 104.070427 2.443552 8.231699 71.258492 -39.464275 12.704247 104.424065
[R_mid_hand03]
20 106.028137 -11.221827 -5.996406 -170.371872 12.607442 -49.434200 106.788818
21 106.028137 -11.221827 -5.996406 -169.243027 11.659414 -44.056225 106.788818
[spine02]
20 129.756927 0.001550 0.000119 0.386186 -4.042150 -13.296824 129.756927
21 129.756927 0.001550 0.000119 0.375128 -4.043311 -13.142710 129.756927
[spine03]
20 78.614563 0.080591 -4.899038 2.200162 3.668355 21.100050 78.767105
21 78.614532 0.080641 -4.899036 2.192712 3.670803 21.019318 78.767075
[pelvis]
20 169.435242 0.051022 0.000000 -0.061828 -0.179762 14.955447 169.435257
21 169.435242 0.051022 0.000000 -0.061750 -0.179789 14.905564 169.435257
[null_rope03_connect]
20 -1.257226 -2.466202 137.391083 -60.670582 -58.185337 136.766388 137.418976
21 -1.257226 -2.466202 137.391083 -59.809849 -50.613605 134.562851 137.418976
[null_rope04_connect]
20 -1.259640 -2.480268 -137.844437 -60.670582 -58.185337 136.766388 137.872513
21 -1.259640 -2.480268 -137.844437 -59.809849 -50.613605 134.562851 137.872513
[Rope3_Seg01]
20 0.000000 0.000000 0.000000 -134.250870 -34.835285 -76.166290 0.000000
21 0.000000 0.000000 0.000000 -131.244110 -39.743511 -82.596146 0.000000
[Rope3_Seg02]
20 139.999924 -0.000119 0.000060 -2.475400 2.307450 -12.048773 139.999924
21 139.999924 -0.000119 0.000060 -1.218122 16.113644 -2.898416 139.999924
[Rope3_Seg03]
20 139.999924 -0.000119 0.000119 -3.565748 3.419008 -9.530766 139.999924
21 139.999924 -0.000119 0.000119 0.657199 10.080883 1.633578 139.999924
[Rope3_Seg04]
20 139.999924 0.000119 0.000000 -28.751238 6.521986 -39.913757 139.999924
21 139.999924 0.000119 0.000000 1.201146 10.476006 -3.663572 139.999924
[Rope3_Seg05]
20 139.999924 -0.000238 0.000060 -70.603874 27.738958 -48.195839 139.999924
21 139.999924 -0.000238 0.000060 -0.295674 24.636042 -21.211203 139.999924
[Rope3_Seg06]
20 139.999893 -0.000119 -0.000060 -6.700906 13.415735 0.883634 139.999893
21 139.999893 -0.000119 -0.000060 -1.078627 18.868736 -17.810066 139.999893
[Rope3_Seg07]
20 139.999771 0.000060 -0.000119 -0.975658 3.707775 0.687536 139.999771
21 139.999771 0.000060 -0.000119 -0.164047 9.394347 -8.783902 139.999771
[Rope3_Seg08]
20 139.999985 -0.000060 0.000000 0.516020 0.046152 0.011727 139.999985
21 139.999985 -0.000060 0.000000 0.253825 4.322142 -4.077686 139.999985
[Rope3_Seg09]
20 90.185997 -0.000179 -0.000060 50.984638 -1.358000 -0.848429 90.185997
21 90.185997 -0.000179 -0.000060 48.564457 -1.358184 -0.847022 90.185997
[R_rear_hand01]
20 103.366196 -6.073594 -10.757982 -172.238480 23.483227 -60.517689 104.101845
21 103.366196 -6.073594 -10.757982 -169.120041 22.271713 -52.514664 104.101845
[R_rear_hand02]
20 100.509819 12.039542 -7.992327 -21.154240 33.253242 57.810928 101.543350
21 100.509819 12.039542 -7.992327 -25.410219 30.297220 49.738018 101.543350
[R_rear_hand03]
20 101.539970 5.215704 5.435467 78.590141 -59.929554 13.768726 101.819031
21 101.539970 5.215704 5.435467 80.612038 -52.579044 11.342816 101.819031
[Rope4_Seg01]
20 0.000000 0.000000 0.000000 86.113533 -43.120117 -149.694000 0.000000
21 0.000000 0.000000 0.000000 100.369507 -43.708828 -162.044174 0.000000
[Rope4_Seg02]
20 139.999985 0.000060 0.000119 4.608130 -7.102218 0.771883 139.999985
21 139.999985 0.000060 0.000119 10.560785 -9.613507 2.490876 139.999985
[Rope4_Seg03]
20 139.999924 0.000000 -0.000238 11.383460 -11.421596 2.211551 139.999924
21 139.999924 0.000000 -0.000238 22.950409 -12.278086 5.865118 139.999924
[Rope4_Seg04]
20 139.999985 0.000000 0.000119 37.241043 -18.816797 7.631951 139.999985
21 139.999985 0.000000 0.000119 34.549953 -11.084962 11.766781 139.999985
[Rope4_Seg05]
20 139.999802 -0.000060 -0.000119 45.471409 -12.769449 20.690296 139.999802
21 139.999802 -0.000060 -0.000119 20.336552 -1.821561 12.121775 139.999802
[Rope4_Seg06]
20 139.999924 0.000000 0.000060 13.822593 6.994040 16.657293 139.999924
21 139.999924 0.000000 0.000060 12.940540 5.541679 14.603149 139.999924
[Rope4_Seg07]
20 139.999802 0.000000 0.000000 11.135763 24.043081 26.965107 139.999802
21 139.999802 0.000000 0.000000 16.659735 24.243042 36.762943 139.999802
[Rope4_Seg08]
20 139.999924 0.000000 0.000119 2.131111 22.461390 21.533392 139.999924
21 139.999924 0.000000 0.000119 1.108348 20.174168 22.027365 139.999924
[Rope4_Seg09]
20 90.185791 0.000060 0.000060 -171.602829 2.227234 0.849664 90.185791
21 90.185791 0.000060 0.000060 -173.838303 2.231107 0.849976 90.185791
[L_rear_hand01]
20 101.696655 -8.392275 -7.654577 -23.617750 -31.657484 126.776222 102.329041
21 101.696655 -8.392275 -7.654577 -25.765186 -29.999708 130.968674 102.329041
[L_rear_hand02]
20 102.726799 -1.568258 5.773216 79.838760 55.818478 167.703323 102.900848
21 102.726799 -1.568258 5.773216 80.753731 51.907436 168.837830 102.900848
[L_rear_hand03]
20 104.552910 9.721220 -10.420293 -170.465469 -22.855137 -123.984573 105.519653
21 104.552910 9.721220 -10.420293 -168.847382 -22.142536 -128.209076 105.519653
